<?xml version="1.0" encoding="utf-8"?>
<!-- Generator: Adobe Illustrator 16.0.4, SVG Export Plug-In . SVG Version: 6.00 Build 0)  -->
<!DOCTYPE svg PUBLIC "-//W3C//DTD SVG 1.1//EN" "http://www.w3.org/Graphics/SVG/1.1/DTD/svg11.dtd">
<svg version="1.1" id="Layer_1" xmlns="http://www.w3.org/2000/svg" xmlns:xlink="http://www.w3.org/1999/xlink" x="0px" y="0px"
	 width="250px" height="37px" viewBox="0 0 2390.475 718.343" enable-background="new 0 0 2390.475 718.343"
	 xml:space="preserve">
<g>
	<g>
		<g>
			<g>
				<path fill="#000E78" d="M389.885,106.608l11.543,140.812h-11.543c-11.609-35.089-26.636-61.521-45.07-79.292
					c-26.538-25.695-60.637-38.486-102.318-38.486c-56.806,0-100.011,22.472-129.65,67.446
					c-24.771,37.949-37.169,83.135-37.169,135.563c0,42.553,8.224,81.371,24.676,116.488c16.45,35.065,38.001,60.813,64.646,77.142
					c26.652,16.357,54.007,24.515,82.104,24.515c16.439,0,32.346-2.094,47.709-6.254c15.349-4.148,30.156-10.317,44.419-18.423
					V397.124c0-22.367-1.7-36.98-5.102-43.9c-3.409-6.922-8.672-12.184-15.798-15.799c-7.138-3.632-19.7-5.438-37.673-5.438V319.49
					H453.39v12.496h-8.224c-17.104,0-28.837,5.724-35.199,17.13c-4.393,8.091-6.581,24.105-6.581,48.008v136.556
					c-25.202,13.623-50.125,23.603-74.681,29.939c-24.57,6.359-51.88,9.542-81.939,9.542c-86.214,0-151.678-27.639-196.417-82.918
					C16.792,448.788,0,400.982,0,346.82c0-39.292,9.438-76.91,28.294-112.889c22.364-42.782,53.093-75.659,92.123-98.705
					c32.699-19.074,71.284-28.618,115.822-28.618c16.238,0,30.987,1.307,44.253,3.929c13.283,2.651,32.072,8.458,56.438,17.46
					c12.293,4.604,20.505,6.905,24.677,6.905c4.146,0,7.722-1.917,10.685-5.765c2.952-3.834,4.773-11.34,5.43-22.529H389.885z"/>
			</g>
			<g>
				<path fill="#000E78" d="M811.341,128.989v-12.185h157.94v12.185H952.52c-17.565,0-31.025,7.339-40.463,22.024
					c-4.62,6.798-6.917,22.596-6.917,47.395V379.37c0,44.757-4.46,79.452-13.313,104.171c-8.903,24.662-26.335,45.802-52.344,63.477
					c-25.979,17.646-61.357,26.5-106.087,26.5c-48.7,0-85.693-8.455-110.928-25.345c-25.207-16.915-43.059-39.591-53.593-68.114
					c-7.032-19.536-10.556-56.164-10.556-109.907V195.77c0-27.421-3.776-45.395-11.349-53.977
					c-7.562-8.536-19.768-12.806-36.684-12.806h-16.763v-12.185h192.787v12.185h-17.104c-18.408,0-31.57,5.805-39.47,17.428
					c-5.495,7.916-8.237,24.352-8.237,49.354v194.472c0,17.321,1.591,37.157,4.771,59.539c3.182,22.379,8.945,39.821,17.293,52.303
					c8.321,12.537,20.343,22.854,36.004,30.955c15.688,8.103,34.928,12.142,57.741,12.142c29.203,0,55.278-6.351,78.338-19.061
					c23.02-12.729,38.759-29.011,47.217-48.862c8.418-19.839,12.658-53.46,12.658-100.854V195.77
					c0-27.857-3.084-45.316-9.217-52.316c-8.539-9.641-21.275-14.465-38.166-14.465H811.341z M689.617,1
					c10.104,0,18.584,3.493,25.492,10.521c6.949,7.017,10.373,15.458,10.373,25.331c0,9.883-3.52,18.257-10.535,25.165
					c-7,6.935-15.337,10.362-25.018,10.362c-9.857,0-18.286-3.428-25.328-10.362c-7.015-6.908-10.537-15.282-10.537-25.165
					c0-9.872,3.496-18.314,10.376-25.331C671.357,4.493,679.749,1,689.617,1z M805.778,1c9.872,0,18.249,3.493,25.166,10.521
					c6.923,7.017,10.351,15.458,10.351,25.331c0,9.883-3.428,18.257-10.351,25.165c-6.917,6.935-15.294,10.362-25.166,10.362
					c-9.896,0-18.326-3.428-25.354-10.362c-7.029-6.908-10.521-15.282-10.521-25.165c0-9.872,3.492-18.314,10.521-25.331
					C787.452,4.493,795.882,1,805.778,1z"/>
			</g>
			<g>
				<path fill="#000E78" d="M1458.866,562.965h-119.111L1188.733,354.35c-11.189,0.464-20.3,0.654-27.314,0.654
					c-2.842,0-5.914-0.043-9.218-0.146c-3.275-0.11-6.677-0.262-10.185-0.508v129.651c0,28.058,3.06,45.52,9.221,52.315
					c8.305,9.649,20.84,14.479,37.496,14.479h17.454v12.168h-191.181v-12.168h16.777c18.868,0,32.372-6.158,40.487-18.419
					c4.58-6.812,6.877-22.913,6.877-48.376V195.77c0-28.076-3.07-45.505-9.205-52.316c-8.551-9.641-21.262-14.465-38.159-14.465
					h-16.777v-12.185h162.535c47.383,0,82.324,3.47,104.809,10.364c22.478,6.906,41.549,19.645,57.255,38.175
					c15.66,18.547,23.52,40.624,23.52,66.279c0,27.452-8.931,51.229-26.821,71.403c-17.882,20.207-45.571,34.439-83.07,42.771
					l92.109,128.006c21.061,29.395,39.143,48.919,54.316,58.575c15.117,9.626,34.887,15.795,59.208,18.419L1458.866,562.965
					L1458.866,562.965z M1142.016,333.646c4.175,0,7.793,0.055,10.852,0.146c3.06,0.123,5.603,0.18,7.562,0.18
					c42.562,0,74.653-9.22,96.244-27.643c21.612-18.407,32.423-41.902,32.423-70.425c0-27.845-8.728-50.495-26.159-67.936
					c-17.428-17.461-40.518-26.176-69.268-26.176c-12.726,0-29.939,2.094-51.652,6.253L1142.016,333.646L1142.016,333.646z"/>
			</g>
			<g>
				<path fill="#000E78" d="M1788.212,413.588h-172.766l-30.275,70.414c-7.439,17.321-11.181,30.266-11.181,38.828
					c0,6.812,3.24,12.75,9.726,17.947c6.444,5.128,20.423,8.484,41.961,10.02v12.168H1485.16v-12.168
					c18.652-3.274,30.729-7.573,36.193-12.833c11.198-10.539,23.588-31.922,37.182-64.161l156.939-367.194h11.541l155.305,371.15
					c12.479,29.817,23.831,49.161,34.06,58.082c10.183,8.879,24.359,13.868,42.606,14.955v12.168h-176.023v-12.168
					c17.729-0.871,29.748-3.835,35.987-8.879c6.269-5.057,9.403-11.203,9.403-18.421c0-9.655-4.401-24.895-13.187-45.737
					L1788.212,413.588z M1778.979,389.24l-75.648-180.307l-77.654,180.307H1778.979z"/>
			</g>
			<g>
				<path fill="#000E78" d="M2379.776,439.596l10.861,2.296l-38.163,121.071h-345.509v-12.168h16.789
					c18.858,0,32.346-6.158,40.477-18.419c4.623-7.005,6.92-23.237,6.92-48.704V195.77c0-27.857-3.072-45.316-9.231-52.316
					c-8.554-9.641-21.263-14.465-38.165-14.465h-16.789v-12.185h202.047v12.185c-23.697-0.232-40.312,1.957-49.871,6.565
					c-9.527,4.637-16.043,10.413-19.577,17.458c-3.492,7.001-5.246,23.777-5.246,50.316v280.345c0,18.205,1.754,30.729,5.246,37.481
					c2.651,4.623,6.719,8.038,12.186,10.229c5.488,2.217,22.607,3.305,51.351,3.305h32.562c34.207,0,58.23-2.529,72.057-7.573
					c13.824-5.044,26.43-13.991,37.836-26.826C2356.965,487.468,2368.37,467.239,2379.776,439.596z"/>
			</g>
		</g>
		<g>
			<g>
				<path fill="#000E78" d="M20.503,677.945v19.509c0,4.202,0.488,6.812,1.4,7.831c1.252,1.455,3.169,2.201,5.695,2.201h2.543v1.809
					H1.442v-1.809h2.529c2.826,0,4.84-0.938,6.062-2.771c0.654-1.034,1.008-3.468,1.008-7.261v-43.274
					c0-4.239-0.453-6.854-1.36-7.871c-1.265-1.442-3.183-2.164-5.709-2.164h-2.53v-1.849h24.551c6.014,0,10.729,0.638,14.185,1.864
					c3.469,1.234,6.377,3.342,8.755,6.264c2.365,2.897,3.533,6.408,3.533,10.404c0,5.478-1.808,9.937-5.409,13.326
					c-3.578,3.438-8.688,5.188-15.27,5.188c-1.631,0-3.355-0.133-5.233-0.379C24.679,678.719,22.665,678.404,20.503,677.945z
					 M20.503,675.103c1.767,0.354,3.305,0.586,4.662,0.745c1.332,0.18,2.516,0.263,3.453,0.263c3.415,0,6.394-1.336,8.853-4
					c2.503-2.624,3.739-6.078,3.739-10.277c0-2.896-0.6-5.603-1.77-8.09c-1.193-2.488-2.869-4.322-5.041-5.588
					c-2.163-1.237-4.651-1.849-7.427-1.849c-1.657,0-3.817,0.324-6.471,0.949L20.503,675.103L20.503,675.103z"/>
			</g>
			<g>
				<path fill="#000E78" d="M166.89,709.295h-17.878l-22.679-31.31c-1.674,0.055-3.048,0.095-4.109,0.095
					c-0.416,0-0.882,0-1.355-0.012c-0.518-0.028-1.02-0.058-1.578-0.083v19.469c0,4.202,0.517,6.812,1.413,7.831
					c1.237,1.455,3.114,2.201,5.631,2.201h2.61v1.809h-28.676v-1.809h2.517c2.812,0,4.84-0.938,6.033-2.771
					c0.707-1.034,1.062-3.468,1.062-7.261v-43.274c0-4.239-0.448-6.854-1.373-7.871c-1.295-1.442-3.181-2.164-5.724-2.164h-2.517
					v-1.849h24.392c7.111,0,12.36,0.518,15.731,1.576c3.371,1.034,6.237,2.938,8.591,5.724c2.363,2.776,3.549,6.122,3.549,9.953
					c0,4.133-1.358,7.697-4.038,10.729c-2.68,3.019-6.851,5.181-12.48,6.416l13.84,19.213c3.169,4.403,5.892,7.34,8.145,8.809
					c2.298,1.441,5.249,2.353,8.895,2.771L166.89,709.295L166.89,709.295z M119.29,674.885c0.641,0,1.195,0,1.66,0.016
					c0.463,0,0.828,0.012,1.141,0.012c6.391,0,11.189-1.372,14.426-4.147c3.277-2.747,4.882-6.306,4.882-10.574
					c0-4.174-1.309-7.575-3.902-10.199c-2.637-2.609-6.118-3.939-10.397-3.939c-1.933,0-4.517,0.324-7.808,0.963L119.29,674.885
					L119.29,674.885z"/>
			</g>
			<g>
				<path fill="#000E78" d="M229.635,645.969v26.469h14.738c3.776,0,6.359-0.556,7.652-1.728c1.701-1.508,2.664-4.16,2.854-7.994
					h1.819v23.306h-1.819c-0.463-3.253-0.926-5.33-1.373-6.268c-0.612-1.159-1.577-2.056-2.925-2.723
					c-1.332-0.651-3.425-0.991-6.21-0.991h-14.738v22.094c0,2.979,0.138,4.772,0.395,5.411c0.271,0.641,0.719,1.153,1.374,1.523
					c0.69,0.394,1.929,0.581,3.775,0.581h11.354c3.781,0,6.537-0.257,8.238-0.788c1.744-0.546,3.371-1.589,4.946-3.109
					c2.039-2.029,4.138-5.138,6.269-9.232h1.983l-5.789,16.774h-51.635v-1.809h2.394c1.575,0,3.069-0.407,4.513-1.142
					c1.032-0.515,1.755-1.319,2.146-2.393c0.354-1.046,0.573-3.21,0.573-6.455v-43.536c0-4.227-0.438-6.869-1.295-7.845
					c-1.192-1.288-3.169-1.974-5.938-1.974h-2.394v-1.849h51.635l0.746,14.709h-1.918c-0.704-3.546-1.479-5.98-2.311-7.269
					c-0.828-1.322-2.08-2.343-3.725-3.033c-1.318-0.501-3.656-0.733-6.974-0.733h-18.364V645.969z"/>
			</g>
			<g>
				<path fill="#000E78" d="M354.186,709.295l-25.888-56.353v44.742c0,4.105,0.435,6.703,1.345,7.709
					c1.184,1.387,3.128,2.093,5.764,2.093h2.381v1.809h-23.344v-1.809h2.379c2.844,0,4.84-0.867,6.036-2.584
					c0.724-1.03,1.077-3.465,1.077-7.218v-43.778c0-2.961-0.326-5.087-0.984-6.404c-0.447-0.947-1.314-1.752-2.537-2.404
					c-1.239-0.641-3.237-0.953-5.971-0.953v-1.849h18.979l24.339,52.452l23.888-52.452H400.6v1.849h-2.326
					c-2.842,0-4.866,0.87-6.076,2.56c-0.708,1.057-1.09,3.49-1.09,7.203v43.778c0,4.105,0.479,6.703,1.391,7.709
					c1.223,1.387,3.154,2.093,5.775,2.093h2.326v1.809h-28.441v-1.809h2.378c2.867,0,4.853-0.867,6.011-2.584
					c0.707-1.03,1.102-3.464,1.102-7.218v-44.742l-25.86,56.353L354.186,709.295L354.186,709.295z"/>
			</g>
			<g>
				<path fill="#000E78" d="M476.449,707.486v1.809h-28.703v-1.809h2.356c2.771,0,4.757-0.827,6.021-2.434
					c0.803-1.059,1.183-3.604,1.183-7.6v-43.273c0-3.4-0.214-5.643-0.626-6.715c-0.324-0.832-1.006-1.554-2.01-2.15
					c-1.466-0.786-2.964-1.17-4.567-1.17h-2.356v-1.849h28.703v1.849h-2.434c-2.719,0-4.703,0.788-5.98,2.423
					c-0.803,1.059-1.223,3.574-1.223,7.612v43.274c0,3.371,0.203,5.601,0.652,6.717c0.312,0.802,0.991,1.539,2.063,2.107
					c1.413,0.788,2.908,1.208,4.486,1.208H476.449L476.449,707.486z"/>
			</g>
			<g>
				<path fill="#000E78" d="M542.523,645.969v26.469h14.755c3.791,0,6.36-0.556,7.643-1.728c1.726-1.508,2.677-4.16,2.879-7.994
					h1.811v23.306H567.8c-0.463-3.253-0.939-5.33-1.399-6.268c-0.585-1.159-1.55-2.056-2.907-2.723
					c-1.348-0.651-3.44-0.991-6.214-0.991h-14.755v22.094c0,2.979,0.165,4.772,0.396,5.411c0.286,0.641,0.731,1.153,1.388,1.523
					c0.667,0.394,1.929,0.581,3.765,0.581h11.381c3.793,0,6.539-0.257,8.238-0.788c1.712-0.546,3.375-1.589,4.95-3.109
					c2.024-2.029,4.132-5.138,6.269-9.232h1.971l-5.776,16.774h-51.641v-1.809h2.381c1.576,0,3.089-0.407,4.483-1.142
					c1.075-0.515,1.785-1.319,2.15-2.393c0.393-1.046,0.584-3.21,0.584-6.455v-43.536c0-4.227-0.434-6.869-1.291-7.845
					c-1.183-1.288-3.141-1.974-5.928-1.974h-2.381v-1.849h51.641l0.733,14.709h-1.903c-0.709-3.546-1.483-5.98-2.312-7.269
					c-0.834-1.322-2.097-2.343-3.738-3.033c-1.308-0.501-3.645-0.733-6.976-0.733h-18.385V645.969z"/>
			</g>
			<g>
				<path fill="#000E78" d="M694.037,709.295h-17.865l-22.675-31.31c-1.688,0.055-3.048,0.095-4.081,0.095
					c-0.448,0-0.911,0-1.389-0.012c-0.5-0.028-1.004-0.058-1.549-0.083v19.469c0,4.202,0.463,6.812,1.387,7.831
					c1.252,1.455,3.101,2.201,5.632,2.201h2.621v1.809h-28.702v-1.809h2.519c2.841,0,4.868-0.938,6.073-2.771
					c0.695-1.034,1.036-3.468,1.036-7.261v-43.274c0-4.239-0.451-6.854-1.371-7.871c-1.281-1.442-3.211-2.164-5.738-2.164h-2.519
					v-1.849h24.394c7.137,0,12.345,0.518,15.729,1.576c3.398,1.034,6.27,2.938,8.605,5.724c2.35,2.776,3.52,6.122,3.52,9.953
					c0,4.133-1.329,7.697-3.993,10.729c-2.709,3.019-6.854,5.181-12.48,6.416l13.811,19.212c3.168,4.402,5.886,7.34,8.158,8.809
					c2.285,1.441,5.233,2.353,8.878,2.771V709.295z M646.479,674.885c0.641,0,1.156,0,1.646,0.016c0.447,0,0.843,0.012,1.13,0.012
					c6.386,0,11.215-1.372,14.436-4.147c3.25-2.747,4.869-6.306,4.869-10.574c0-4.174-1.306-7.575-3.916-10.199
					c-2.613-2.609-6.077-3.939-10.401-3.939c-1.915,0-4.499,0.324-7.763,0.963L646.479,674.885L646.479,674.885z"/>
			</g>
			<g>
				<path fill="#000E78" d="M824.244,673.388h31.105v-19.185c0-3.397-0.217-5.667-0.639-6.739c-0.325-0.832-1.019-1.554-2.066-2.15
					c-1.428-0.786-2.922-1.17-4.513-1.17h-2.381v-1.849h28.66v1.849h-2.352c-1.578,0-3.087,0.384-4.516,1.142
					c-1.061,0.516-1.765,1.334-2.146,2.382c-0.37,1.061-0.544,3.25-0.544,6.537v43.25c0,3.371,0.202,5.601,0.638,6.717
					c0.302,0.802,0.993,1.539,1.998,2.107c1.473,0.788,2.992,1.208,4.57,1.208h2.352v1.809h-28.66v-1.809h2.381
					c2.73,0,4.73-0.827,5.98-2.434c0.817-1.059,1.236-3.604,1.236-7.6v-20.422h-31.105v20.422c0,3.371,0.175,5.601,0.626,6.717
					c0.324,0.802,1.021,1.539,2.092,2.107c1.401,0.788,2.896,1.208,4.489,1.208h2.403v1.809h-28.688v-1.809h2.354
					c2.783,0,4.8-0.827,6.033-2.434c0.788-1.059,1.21-3.604,1.21-7.6v-43.25c0-3.397-0.242-5.667-0.68-6.739
					c-0.3-0.832-0.978-1.554-2.011-2.15c-1.453-0.786-2.938-1.169-4.554-1.169h-2.354v-1.85h28.688v1.85h-2.403
					c-1.594,0-3.088,0.383-4.489,1.141c-1.045,0.516-1.756,1.334-2.146,2.382c-0.396,1.06-0.57,3.25-0.57,6.537L824.244,673.388
					L824.244,673.388z"/>
			</g>
			<g>
				<path fill="#000E78" d="M955.998,640.791c8.66,0,16.222,3.283,22.584,9.906c6.361,6.58,9.57,14.836,9.57,24.707
					c0,10.193-3.209,18.609-9.654,25.339c-6.43,6.743-14.192,10.075-23.315,10.075c-9.2,0-16.951-3.265-23.219-9.813
					c-6.279-6.552-9.438-15.054-9.438-25.44c0-10.646,3.646-19.332,10.892-26.02C939.699,643.695,947.217,640.791,955.998,640.791z
					 M955.049,644.39c-5.995,0-10.811,2.229-14.426,6.689c-4.526,5.51-6.783,13.636-6.783,24.268
					c0,10.944,2.363,19.359,7.027,25.261c3.591,4.462,8.317,6.702,14.236,6.702c6.294,0,11.477-2.447,15.58-7.354
					c4.093-4.879,6.158-12.642,6.158-23.207c0-11.461-2.261-20.013-6.783-25.64C966.443,646.633,961.427,644.39,955.049,644.39z"/>
			</g>
			<g>
				<path fill="#000E78" d="M1093.072,642.296l0.72,15.729h-1.875c-0.342-2.771-0.843-4.73-1.453-5.928
					c-1.034-1.904-2.41-3.331-4.097-4.218c-1.697-0.921-3.938-1.385-6.699-1.385h-9.438v51.188c0,4.105,0.476,6.703,1.347,7.709
					c1.252,1.387,3.182,2.093,5.779,2.093h2.312v1.809h-28.374v-1.809h2.352c2.83,0,4.853-0.867,6.021-2.584
					c0.735-1.03,1.09-3.464,1.09-7.218v-51.188h-8.035c-3.143,0-5.371,0.262-6.691,0.707c-1.712,0.625-3.166,1.836-4.377,3.621
					c-1.225,1.778-1.958,4.159-2.175,7.2h-1.877l0.775-15.729L1093.072,642.296L1093.072,642.296z"/>
			</g>
			<g>
				<path fill="#000E78" d="M1159.964,645.969v26.469h14.709c3.836,0,6.366-0.556,7.655-1.728c1.728-1.508,2.681-4.16,2.882-7.994
					h1.825v23.306h-1.825c-0.476-3.253-0.925-5.33-1.388-6.268c-0.582-1.159-1.561-2.056-2.922-2.723
					c-1.358-0.651-3.428-0.991-6.229-0.991h-14.709v22.094c0,2.979,0.122,4.772,0.407,5.411c0.26,0.641,0.707,1.153,1.374,1.523
					c0.651,0.394,1.903,0.581,3.751,0.581h11.366c3.794,0,6.54-0.257,8.267-0.788c1.675-0.546,3.33-1.589,4.906-3.109
					c2.058-2.029,4.137-5.138,6.282-9.232h1.974l-5.781,16.774h-51.607v-1.809h2.366c1.562,0,3.088-0.407,4.485-1.142
					c1.075-0.515,1.771-1.319,2.162-2.393c0.381-1.046,0.543-3.21,0.543-6.455v-43.536c0-4.227-0.42-6.869-1.262-7.845
					c-1.186-1.288-3.184-1.974-5.93-1.974h-2.366v-1.849h51.606l0.737,14.709h-1.916c-0.694-3.546-1.469-5.98-2.3-7.269
					c-0.843-1.322-2.064-2.343-3.723-3.033c-1.335-0.501-3.633-0.733-6.963-0.733h-18.379V645.969z"/>
			</g>
			<g>
				<path fill="#000E78" d="M1301.099,690.794l1.633,0.312l-5.737,18.189h-51.869v-1.809h2.518c2.84,0,4.869-0.938,6.078-2.771
					c0.694-1.09,1.05-3.507,1.05-7.329v-43.206c0-4.188-0.453-6.799-1.393-7.871c-1.273-1.442-3.194-2.164-5.735-2.164h-2.517
					v-1.849h30.333v1.849c-3.533-0.051-6.053,0.303-7.479,0.995c-1.429,0.68-2.404,1.563-2.963,2.582
					c-0.512,1.099-0.747,3.604-0.747,7.572v42.092c0,2.747,0.235,4.64,0.747,5.646c0.42,0.679,1.022,1.181,1.864,1.52
					c0.817,0.341,3.36,0.504,7.68,0.504h4.893c5.172,0,8.732-0.364,10.824-1.15c2.079-0.737,3.973-2.083,5.697-4.026
					C1297.688,697.971,1299.39,694.937,1301.099,690.794z"/>
			</g>
			<g>
				<path fill="#000E78" d="M1393.785,640.791v23.148h-1.85c-0.574-4.433-1.647-7.967-3.172-10.618
					c-1.521-2.624-3.71-4.716-6.521-6.251c-2.854-1.555-5.778-2.327-8.823-2.327c-3.416,0-6.256,1.046-8.484,3.138
					c-2.271,2.069-3.371,4.477-3.371,7.129c0,2.055,0.729,3.914,2.136,5.57c2.038,2.479,6.919,5.781,14.574,9.885
					c6.251,3.361,10.535,5.942,12.803,7.738c2.302,1.795,4.056,3.905,5.305,6.338c1.222,2.46,1.851,5.002,1.851,7.664
					c0,5.06-1.972,9.451-5.917,13.12c-3.93,3.685-8.97,5.493-15.187,5.493c-1.942,0-3.764-0.133-5.491-0.436
					c-1.019-0.15-3.143-0.771-6.322-1.808c-3.234-1.021-5.249-1.523-6.116-1.523c-0.832,0-1.473,0.221-1.96,0.695
					c-0.462,0.5-0.812,1.547-1.044,3.07h-1.836v-22.936h1.836c0.842,4.771,1.995,8.389,3.464,10.767
					c1.445,2.38,3.646,4.381,6.637,5.971c2.979,1.562,6.243,2.362,9.815,2.362c4.106,0,7.354-1.083,9.751-3.273
					c2.39-2.174,3.557-4.731,3.557-7.724c0-1.616-0.445-3.277-1.354-4.985c-0.896-1.663-2.312-3.237-4.214-4.693
					c-1.281-0.968-4.774-3.088-10.527-6.268c-5.747-3.225-9.813-5.777-12.218-7.696c-2.421-1.901-4.257-3.998-5.523-6.322
					c-1.252-2.312-1.875-4.825-1.875-7.599c0-4.8,1.85-8.974,5.562-12.44c3.675-3.452,8.362-5.189,14.056-5.189
					c3.552,0,7.331,0.868,11.313,2.62c1.836,0.802,3.14,1.211,3.917,1.211c0.843,0,1.534-0.231,2.092-0.75
					c0.557-0.504,0.981-1.535,1.294-3.081H1393.785L1393.785,640.791z"/>
			</g>
			<g>
				<path fill="#000E78" d="M1565.552,666.172h20.748v1.845c-2.866,0.193-4.977,0.858-6.351,1.88
					c-1.373,1.045-3.509,4.188-6.391,9.447c-2.92,5.197-6.158,10.114-9.788,14.656c2.938,3.428,5.562,5.81,7.842,7.181
					c2.329,1.359,4.642,2.026,6.99,2.026c2.273,0,4.176-0.598,5.781-1.838c1.561-1.236,2.691-3.047,3.344-5.463l1.836,1.345
					c-1.226,4.637-3.193,8.074-5.874,10.267c-2.721,2.216-5.849,3.302-9.448,3.302c-2.705,0-5.451-0.707-8.228-2.172
					c-2.789-1.483-5.819-3.947-9.123-7.438c-4.063,3.615-7.748,6.104-11.011,7.501c-3.276,1.415-6.783,2.109-10.51,2.109
					c-5.429,0-9.752-1.429-12.943-4.322c-3.206-2.938-4.8-6.363-4.8-10.388c0-3.969,1.44-7.979,4.307-11.922
					c2.842-3.976,8.242-8.075,16.155-12.334c-1.549-3.399-2.598-6.238-3.153-8.413c-0.584-2.206-0.86-4.284-0.86-6.296
					c0-5.673,2.08-9.94,6.243-12.9c3.227-2.312,6.88-3.452,11.014-3.452c3.888,0,7.108,1.141,9.569,3.49
					c2.459,2.312,3.714,5.167,3.714,8.54c0,3.507-1.188,6.564-3.577,9.216c-2.394,2.608-6.618,5.522-12.684,8.646
					c4.187,7.413,8.536,14.237,13.104,20.422c5.78-6.905,8.688-12.739,8.688-17.483c0-1.509-0.519-2.855-1.494-4.038
					c-0.734-0.881-1.771-1.441-3.103-1.565L1565.552,666.172L1565.552,666.172z M1554.35,698.341
					c-4.379-5.946-7.371-10.255-9.042-13.002c-1.698-2.729-3.534-6.128-5.562-10.165c-3.928,2.271-6.917,4.771-8.9,7.501
					c-1.987,2.734-2.994,5.713-2.994,8.894c0,3.521,1.158,6.622,3.413,9.258c2.298,2.693,5.355,4.037,9.176,4.037
					c2.081,0,4.093-0.405,6.025-1.248C1548.367,702.797,1551.006,701.029,1554.35,698.341z M1546.68,667.462
					c4.081-1.942,7.109-4.159,9.165-6.634c2.026-2.461,3.033-5.222,3.033-8.225c0-2.365-0.723-4.341-2.179-5.9
					c-1.496-1.551-3.318-2.313-5.464-2.313c-2.882,0-5.044,1.006-6.517,2.99c-1.464,1.986-2.199,3.945-2.199,5.858
					c0,1.604,0.286,3.4,0.845,5.412C1543.934,660.638,1545.036,663.575,1546.68,667.462z"/>
			</g>
			<g>
				<path fill="#000E78" d="M1771.256,709.295h-17.867l-22.688-31.31c-1.671,0.055-3.062,0.095-4.104,0.095
					c-0.408,0-0.887,0-1.373-0.012c-0.504-0.028-1.004-0.058-1.537-0.083v19.469c0,4.202,0.451,6.812,1.372,7.831
					c1.251,1.455,3.128,2.201,5.643,2.201h2.624v1.809h-28.711v-1.809h2.537c2.814,0,4.855-0.938,6.062-2.771
					c0.686-1.034,1.037-3.468,1.037-7.261v-43.274c0-4.239-0.448-6.854-1.371-7.871c-1.267-1.442-3.184-2.164-5.729-2.164h-2.537
					v-1.849h24.416c7.111,0,12.344,0.518,15.729,1.576c3.374,1.034,6.239,2.938,8.594,5.724c2.352,2.776,3.534,6.122,3.534,9.953
					c0,4.133-1.33,7.697-4.01,10.729c-2.705,3.019-6.854,5.181-12.508,6.416l13.854,19.213c3.166,4.403,5.888,7.34,8.144,8.809
					c2.283,1.441,5.245,2.353,8.892,2.771v1.808H1771.256z M1723.685,674.885c0.625,0,1.17,0,1.63,0.016
					c0.477,0,0.831,0.012,1.155,0.012c6.378,0,11.19-1.372,14.439-4.147c3.208-2.747,4.854-6.306,4.854-10.574
					c0-4.174-1.309-7.575-3.928-10.199c-2.613-2.609-6.08-3.939-10.416-3.939c-1.904,0-4.474,0.324-7.736,0.963L1723.685,674.885
					L1723.685,674.885z"/>
			</g>
			<g>
				<path fill="#000E78" d="M1833.987,645.969v26.469h14.738c3.805,0,6.361-0.556,7.653-1.728c1.713-1.508,2.661-4.16,2.866-7.994
					h1.821v23.306h-1.821c-0.484-3.253-0.938-5.33-1.386-6.268c-0.598-1.159-1.578-2.056-2.938-2.723
					c-1.341-0.651-3.409-0.991-6.196-0.991h-14.738v22.094c0,2.979,0.148,4.772,0.418,5.411c0.248,0.641,0.695,1.153,1.354,1.523
					c0.688,0.394,1.913,0.581,3.751,0.581h11.392c3.793,0,6.541-0.257,8.234-0.788c1.702-0.546,3.377-1.589,4.952-3.109
					c2.025-2.029,4.132-5.138,6.256-9.232h2.011l-5.806,16.774h-51.625v-1.809h2.365c1.578,0,3.075-0.407,4.5-1.142
					c1.076-0.515,1.771-1.319,2.135-2.393c0.398-1.046,0.574-3.21,0.574-6.455v-43.536c0-4.227-0.396-6.869-1.254-7.845
					c-1.195-1.288-3.166-1.974-5.955-1.974h-2.365v-1.849h51.625l0.734,14.709h-1.916c-0.693-3.546-1.473-5.98-2.301-7.269
					c-0.843-1.322-2.08-2.343-3.725-3.033c-1.32-0.501-3.646-0.733-6.976-0.733h-18.38V645.969z"/>
			</g>
			<g>
				<path fill="#000E78" d="M1963.555,640.791v23.148h-1.848c-0.598-4.433-1.663-7.967-3.184-10.618
					c-1.553-2.624-3.726-4.716-6.557-6.251c-2.826-1.555-5.765-2.327-8.793-2.327c-3.431,0-6.279,1.046-8.498,3.138
					c-2.246,2.069-3.344,4.477-3.344,7.129c0,2.055,0.707,3.914,2.105,5.57c2.054,2.479,6.896,5.781,14.574,9.885
					c6.255,3.361,10.521,5.942,12.822,7.738c2.3,1.795,4.049,3.905,5.273,6.338c1.251,2.46,1.875,5.002,1.875,7.664
					c0,5.06-1.971,9.451-5.91,13.12c-3.932,3.685-9.002,5.493-15.188,5.493c-1.945,0-3.781-0.133-5.51-0.436
					c-1.005-0.15-3.129-0.771-6.318-1.808c-3.225-1.021-5.264-1.523-6.104-1.523c-0.817,0-1.5,0.221-1.977,0.695
					c-0.46,0.5-0.824,1.547-1.043,3.07h-1.81v-22.936h1.81c0.867,4.771,2.012,8.389,3.438,10.767
					c1.468,2.38,3.685,4.381,6.658,5.971c2.993,1.562,6.255,2.362,9.804,2.362c4.138,0,7.369-1.083,9.765-3.273
					c2.376-2.174,3.588-4.731,3.588-7.724c0-1.616-0.45-3.277-1.373-4.985c-0.896-1.663-2.311-3.237-4.212-4.693
					c-1.28-0.968-4.801-3.088-10.512-6.268c-5.75-3.225-9.817-5.777-12.25-7.696c-2.405-1.901-4.252-3.998-5.489-6.322
					c-1.252-2.312-1.894-4.825-1.894-7.599c0-4.8,1.838-8.974,5.552-12.44c3.678-3.452,8.373-5.189,14.082-5.189
					c3.536,0,7.301,0.868,11.297,2.62c1.85,0.802,3.129,1.211,3.9,1.211c0.874,0,1.567-0.231,2.106-0.75
					c0.529-0.504,0.995-1.535,1.311-3.081H1963.555L1963.555,640.791z"/>
			</g>
			<g>
				<path fill="#000E78" d="M2052.906,640.791c8.673,0,16.218,3.283,22.584,9.906c6.374,6.58,9.568,14.836,9.568,24.707
					c0,10.193-3.236,18.609-9.639,25.339c-6.434,6.743-14.196,10.075-23.302,10.075c-9.246,0-16.982-3.265-23.234-9.813
					c-6.281-6.552-9.439-15.054-9.439-25.44c0-10.646,3.648-19.332,10.895-26.02C2036.618,643.695,2044.12,640.791,2052.906,640.791
					z M2051.953,644.39c-5.995,0-10.808,2.229-14.407,6.689c-4.53,5.51-6.787,13.636-6.787,24.268
					c0,10.944,2.353,19.359,7.013,25.261c3.593,4.462,8.312,6.702,14.223,6.702c6.309,0,11.507-2.447,15.609-7.354
					c4.094-4.879,6.145-12.642,6.145-23.207c0-11.461-2.268-20.013-6.782-25.64C2063.349,646.633,2058.331,644.39,2051.953,644.39z"
					/>
			</g>
			<g>
				<path fill="#000E78" d="M2199.823,709.295h-17.865l-22.695-31.31c-1.682,0.055-3.055,0.095-4.104,0.095
					c-0.418,0-0.871,0-1.373-0.012c-0.514-0.028-1.005-0.058-1.545-0.083v19.469c0,4.202,0.459,6.812,1.386,7.831
					c1.25,1.455,3.127,2.201,5.638,2.201h2.6v1.809h-28.702v-1.809h2.531c2.842,0,4.854-0.938,6.078-2.771
					c0.689-1.034,1.031-3.468,1.031-7.261v-43.274c0-4.239-0.451-6.854-1.383-7.871c-1.271-1.442-3.173-2.164-5.728-2.164h-2.531
					v-1.849h24.423c7.108,0,12.354,0.518,15.739,1.576c3.374,1.034,6.229,2.938,8.58,5.724c2.367,2.776,3.521,6.122,3.521,9.953
					c0,4.133-1.328,7.697-4.012,10.729c-2.658,3.019-6.851,5.181-12.479,6.416l13.843,19.213c3.167,4.403,5.874,7.34,8.143,8.809
					c2.261,1.441,5.236,2.353,8.908,2.771v1.808H2199.823z M2152.239,674.885c0.65,0,1.182,0,1.626,0.016
					c0.464,0,0.847,0.012,1.146,0.012c6.362,0,11.2-1.372,14.438-4.147c3.232-2.747,4.882-6.306,4.882-10.574
					c0-4.174-1.321-7.575-3.941-10.199c-2.611-2.609-6.08-3.939-10.389-3.939c-1.92,0-4.5,0.324-7.762,0.963V674.885
					L2152.239,674.885z"/>
			</g>
			<g>
				<path fill="#000E78" d="M2293.876,642.296l0.746,15.729h-1.889c-0.363-2.771-0.854-4.73-1.494-5.928
					c-1.006-1.904-2.354-3.331-4.065-4.218c-1.668-0.921-3.897-1.385-6.675-1.385h-9.421v51.188c0,4.105,0.419,6.703,1.319,7.709
					c1.234,1.387,3.166,2.093,5.766,2.093h2.336v1.809h-28.43v-1.809h2.379c2.844,0,4.843-0.867,6.025-2.584
					c0.719-1.03,1.098-3.464,1.098-7.218v-51.188h-8.057c-3.146,0-5.373,0.262-6.681,0.707c-1.711,0.625-3.181,1.836-4.39,3.621
					c-1.224,1.778-1.945,4.159-2.164,7.2h-1.875l0.807-15.729L2293.876,642.296L2293.876,642.296z"/>
			</g>
			<g>
				<path fill="#000E78" d="M2386.017,640.791v23.148h-1.838c-0.584-4.433-1.656-7.967-3.178-10.618
					c-1.523-2.624-3.716-4.716-6.543-6.251c-2.854-1.555-5.765-2.327-8.794-2.327c-3.43,0-6.269,1.046-8.498,3.138
					c-2.26,2.069-3.372,4.477-3.372,7.129c0,2.055,0.718,3.914,2.135,5.57c2.035,2.479,6.892,5.781,14.574,9.885
					c6.267,3.361,10.521,5.942,12.836,7.738c2.252,1.795,4.032,3.905,5.286,6.338c1.213,2.46,1.849,5.002,1.849,7.664
					c0,5.06-1.996,9.451-5.913,13.12c-3.944,3.685-8.998,5.493-15.215,5.493c-1.934,0-3.751-0.133-5.465-0.436
					c-1.018-0.15-3.152-0.771-6.35-1.808c-3.208-1.021-5.223-1.523-6.094-1.523c-0.844,0-1.467,0.221-1.969,0.695
					c-0.477,0.5-0.814,1.547-1.059,3.07h-1.824v-22.936h1.824c0.866,4.771,2.021,8.389,3.479,10.767
					c1.427,2.38,3.64,4.381,6.619,5.971c2.979,1.562,6.256,2.362,9.829,2.362c4.106,0,7.354-1.083,9.733-3.273
					c2.41-2.174,3.581-4.731,3.581-7.724c0-1.616-0.451-3.277-1.35-4.985c-0.909-1.663-2.312-3.237-4.23-4.693
					c-1.288-0.968-4.811-3.088-10.522-6.268c-5.722-3.225-9.815-5.777-12.211-7.696c-2.434-1.901-4.27-3.998-5.502-6.322
					c-1.279-2.312-1.877-4.825-1.877-7.599c0-4.8,1.836-8.974,5.508-12.44c3.683-3.452,8.388-5.189,14.082-5.189
					c3.564,0,7.342,0.868,11.313,2.62c1.853,0.802,3.172,1.211,3.889,1.211c0.871,0,1.578-0.231,2.121-0.75
					c0.543-0.504,0.98-1.535,1.306-3.081H2386.017L2386.017,640.791z"/>
			</g>
		</g>
	</g>
</g>
</svg>
